<svg width="272px" height="232px" viewBox="0 0 272 232" version="1.1" xmlns="http://www.w3.org/2000/svg" xmlns:xlink="http://www.w3.org/1999/xlink">
    <g id="Page-1" stroke="none" stroke-width="1" fill="none" fill-rule="evenodd">
        <g id="Artboard" transform="translate(-24.000000, -20.000000)" fill="#000000">
            <g id="coinflip" transform="translate(24.000000, 20.000000)">
                <ellipse id="Oval" stroke="#000000" stroke-width="1" transform="translate(204.354603, 41.396866) rotate(27.000000) translate(-204.354603, -41.396866) " cx="204.354603" cy="41.3968659" rx="29.5" ry="7.5"></ellipse>
                <path d="M0,158.913303 L0,223.219034 C29.610732,229.073011 57.6798472,232 84.2073457,232 C123.998593,232 161.224187,206.208669 165.721065,199.29675 C170.575671,191.834987 162.323116,181.910872 164.929905,179.818876 C168.535435,176.925373 170.439309,165.443786 170.575671,163.304314 C171.026028,156.238361 169.144106,151.281978 164.929905,148.435165 C168.50297,143.594542 170.384891,139.677599 170.575671,136.684334 C170.76645,133.69107 169.429713,129.054241 166.56546,122.773847 L258.547017,122.773847 C267.515672,116.338639 272,109.831037 272,103.251041 C272,96.671046 266.282261,91.1904942 254.846783,86.809386 L173.466424,86.809386 L106.284762,86.809386 L150.195155,29.6862345 C148.582733,17.5839625 144.797476,9.27381473 138.839385,4.75579132 C132.881294,0.237767909 123.994709,-1.06114839 112.17963,0.85904242 C106.258433,11.6257852 97.9811733,21.2348493 87.347851,29.6862345 C76.7145287,38.1376198 63.8590629,45.3248872 48.7814535,51.2480368 L0,71.9723661 L0,158.913303 Z" id="Path-2"></path>
                <ellipse id="Oval" stroke="#000000" stroke-width="1" transform="translate(205.262584, 39.614853) rotate(27.000000) translate(-205.262584, -39.614853) " cx="205.262584" cy="39.6148529" rx="29.5" ry="7.5"></ellipse>
            </g>
        </g>
    </g>
</svg>