<svg width="504" height="430" viewBox="0 0 504 430" fill="none" xmlns="http://www.w3.org/2000/svg">
<path d="M318.8 158.798C322.737 158.798 326.413 157.888 329.825 156.067C333.237 154.244 335.928 151.755 337.897 148.599C339.866 145.442 340.85 142.042 340.85 138.399C340.85 134.756 339.866 131.357 337.897 128.2C335.928 125.043 333.237 122.553 329.825 120.732C326.413 118.911 322.737 118 318.8 118C314.863 118 311.187 118.911 307.775 120.732C304.363 122.553 301.672 125.043 299.703 128.2C297.734 131.357 296.75 134.756 296.75 138.399C296.75 142.042 297.734 145.442 299.703 148.599C301.672 151.755 304.363 154.244 307.775 156.067C311.187 157.888 314.863 158.798 318.8 158.798ZM333.959 164.627H332.384C327.922 166.569 323.393 167.541 318.8 167.541C314.207 167.541 309.678 166.569 305.216 164.627H303.641C299.572 164.627 295.766 165.598 292.222 167.541C288.809 169.362 286.053 171.912 283.953 175.19C281.984 178.348 281 181.808 281 185.572V190.854C281 193.282 281.918 195.347 283.757 197.046C285.593 198.747 287.825 199.596 290.45 199.596H347.15C349.775 199.596 352.007 198.747 353.843 197.046C355.682 195.347 356.6 193.282 356.6 190.854V185.572C356.6 181.808 355.55 178.348 353.45 175.19C351.482 171.912 348.725 169.362 345.182 167.541C341.768 165.598 338.028 164.627 333.959 164.627ZM375.5 158.798C380.75 158.798 385.213 157.099 388.887 153.698C392.563 150.299 394.4 146.17 394.4 141.313C394.4 136.456 392.563 132.328 388.887 128.928C385.213 125.528 380.75 123.828 375.5 123.828C370.25 123.828 365.787 125.528 362.113 128.928C358.437 132.328 356.6 136.456 356.6 141.313C356.6 146.17 358.437 150.299 362.113 153.698C365.787 157.099 370.25 158.798 375.5 158.798ZM384.95 164.627H384.163C381.143 165.598 378.257 166.084 375.5 166.084C372.743 166.084 369.857 165.598 366.837 164.627H366.05C362.243 164.627 358.568 165.537 355.025 167.358C357.518 169.908 359.422 172.762 360.734 175.919C362.178 178.954 362.9 182.172 362.9 185.572L362.703 193.768H397.55C400.175 193.768 402.407 192.918 404.243 191.218C406.082 189.519 407 187.454 407 185.026C407 181.384 406.016 177.982 404.047 174.826C402.078 171.67 399.387 169.18 395.975 167.358C392.563 165.537 388.887 164.627 384.95 164.627Z" fill="#4796B9"/>
<path d="M318.6 267.907C322.537 267.907 326.213 266.996 329.625 265.175C333.037 263.353 335.728 260.863 337.697 257.707C339.666 254.551 340.65 251.15 340.65 247.507C340.65 243.865 339.666 240.464 337.697 237.308C335.728 234.152 333.037 231.662 329.625 229.84C326.213 228.019 322.537 227.108 318.6 227.108C314.663 227.108 310.987 228.019 307.575 229.84C304.163 231.662 301.472 234.152 299.503 237.308C297.534 240.464 296.55 243.865 296.55 247.507C296.55 251.15 297.534 254.551 299.503 257.707C301.472 260.863 304.163 263.353 307.575 265.175C310.987 266.996 314.663 267.907 318.6 267.907ZM333.759 273.735H332.184C327.722 275.678 323.193 276.649 318.6 276.649C314.007 276.649 309.478 275.678 305.016 273.735H303.441C299.372 273.735 295.566 274.706 292.022 276.649C288.609 278.47 285.853 281.02 283.753 284.298C281.784 287.456 280.8 290.917 280.8 294.681V299.962C280.8 302.391 281.718 304.455 283.557 306.155C285.393 307.855 287.625 308.705 290.25 308.705H346.95C349.575 308.705 351.807 307.855 353.643 306.155C355.482 304.455 356.4 302.391 356.4 299.962V294.681C356.4 290.917 355.35 287.456 353.25 284.298C351.282 281.02 348.525 278.47 344.982 276.649C341.568 274.706 337.828 273.735 333.759 273.735ZM375.3 267.907C380.55 267.907 385.013 266.207 388.687 262.806C392.363 259.408 394.2 255.279 394.2 250.422C394.2 245.565 392.363 241.436 388.687 238.037C385.013 234.636 380.55 232.937 375.3 232.937C370.05 232.937 365.587 234.636 361.913 238.037C358.237 241.436 356.4 245.565 356.4 250.422C356.4 255.279 358.237 259.408 361.913 262.806C365.587 266.207 370.05 267.907 375.3 267.907ZM384.75 273.735H383.963C380.943 274.706 378.057 275.192 375.3 275.192C372.543 275.192 369.657 274.706 366.637 273.735H365.85C362.043 273.735 358.368 274.645 354.825 276.466C357.318 279.017 359.222 281.87 360.534 285.028C361.978 288.062 362.7 291.281 362.7 294.681L362.503 302.876H397.35C399.975 302.876 402.207 302.027 404.043 300.326C405.882 298.627 406.8 296.562 406.8 294.134C406.8 290.492 405.816 287.091 403.847 283.934C401.878 280.778 399.187 278.289 395.775 276.466C392.363 274.645 388.687 273.735 384.75 273.735Z" fill="#78E383"/>
<path d="M137.828 267.792C137.828 258.669 135.391 248.122 125.565 248.122C122.529 250.863 118.403 252.562 113.828 252.562C109.253 252.562 105.128 250.863 102.091 248.122C92.2656 248.122 89.8282 258.669 89.8282 267.792C89.8282 272.857 93.4281 276.986 97.8156 276.986H129.841C134.229 276.986 137.828 272.857 137.828 267.792ZM128.228 237.02C128.228 229.666 121.778 223.699 113.828 223.699C105.878 223.699 99.4281 229.666 99.4281 237.02C99.4281 244.375 105.878 250.342 113.828 250.342C121.778 250.342 128.228 244.375 128.228 237.02Z" fill="#78E383"/>
<path d="M82.2 269.087C82.2 259.964 79.7624 249.417 69.9375 249.417C66.8999 252.158 62.775 253.857 58.2001 253.857C53.625 253.857 49.5 252.158 46.4625 249.417C36.6376 249.417 34.2 259.964 34.2 269.087C34.2 274.152 37.8 278.282 42.1876 278.282H74.2126C78.6 278.282 82.2 274.152 82.2 269.087ZM72.6 238.315C72.6 230.961 66.15 224.994 58.2001 224.994C50.25 224.994 43.8 230.961 43.8 238.315C43.8 245.67 50.25 251.637 58.2001 251.637C66.15 251.637 72.6 245.67 72.6 238.315Z" fill="#4796B9"/>
<path d="M81.8282 187.491C81.8282 178.367 79.3906 167.821 69.5657 167.821C66.5281 170.561 62.4032 172.261 57.8281 172.261C53.2532 172.261 49.1281 170.561 46.0906 167.821C36.2656 167.821 33.8282 178.367 33.8282 187.491C33.8282 192.556 37.4281 196.685 41.8156 196.685H73.8406C78.2282 196.685 81.8282 192.556 81.8282 187.491ZM72.2281 156.718C72.2281 149.364 65.7781 143.397 57.8281 143.397C49.8782 143.397 43.4281 149.364 43.4281 156.718C43.4281 164.074 49.8782 170.041 57.8281 170.041C65.7781 170.041 72.2281 164.074 72.2281 156.718Z" fill="#78E383"/>
<path d="M136.8 187.491C136.8 178.367 134.363 167.821 124.538 167.821C121.5 170.561 117.375 172.261 112.8 172.261C108.225 172.261 104.1 170.561 101.062 167.821C91.2376 167.821 88.8 178.367 88.8 187.491C88.8 192.556 92.4 196.685 96.7876 196.685H128.812C133.2 196.685 136.8 192.556 136.8 187.491ZM127.201 156.718C127.201 149.364 120.749 143.397 112.8 143.397C104.85 143.397 98.4 149.364 98.4 156.718C98.4 164.074 104.85 170.041 112.8 170.041C120.749 170.041 127.201 164.074 127.201 156.718Z" fill="#4796B9"/>
<path d="M213.671 224.266C215.169 227.113 216.808 229.952 219.007 232.144C221.461 234.589 224.608 236.225 229 236.225H243.399H243.899V235.725V225.734C243.899 225.109 244.426 224.568 245.2 224.568C245.556 224.568 245.894 224.711 246.224 224.969L264.154 241.556C264.375 241.761 264.5 242.089 264.5 242.386C264.5 242.683 264.375 243.01 264.154 243.215L264.493 243.582L264.154 243.215L246.154 259.869C245.929 260.077 245.555 260.203 245.2 260.203C244.482 260.203 243.899 259.61 243.899 259.038V249.047V248.547H243.399C241.537 248.547 239.761 248.569 238.059 248.59C232.079 248.665 227.025 248.728 222.436 247.777C216.684 246.584 211.673 243.793 206.613 237.32C209.436 233.177 211.603 228.737 213.671 224.266ZM243.399 189.598H243.899V189.098V179.107C243.899 178.483 244.426 177.941 245.2 177.941C245.556 177.941 245.894 178.084 246.224 178.343L264.154 194.929C264.375 195.134 264.5 195.463 264.5 195.759C264.5 196.056 264.375 196.384 264.154 196.589L264.493 196.956L264.154 196.589L246.154 213.242C245.929 213.451 245.555 213.577 245.2 213.577C244.472 213.577 243.899 213.027 243.899 212.411V202.42V201.92H243.399H229C225.139 201.92 222.268 203.148 219.964 205.11C217.678 207.057 215.969 209.713 214.389 212.532L214.389 212.532C212.747 215.465 211.333 218.499 209.984 221.465C206.859 228.183 203.5 234.954 198.67 240.051C193.861 245.127 187.59 248.547 178.6 248.547H166C165.226 248.547 164.7 248.007 164.7 247.381V237.39C164.7 236.766 165.226 236.225 166 236.225H178.6C182.461 236.225 185.332 234.997 187.636 233.035C189.922 231.088 191.632 228.433 193.212 225.614L193.212 225.614C194.853 222.681 196.266 219.647 197.617 216.679C200.741 209.962 204.1 203.191 208.93 198.093C213.739 193.018 220.01 189.598 229 189.598H243.399ZM178.6 189.598C188.307 189.598 195.474 193.717 201.042 200.823C198.169 204.969 195.998 209.41 193.928 213.88C192.431 211.033 190.792 208.193 188.593 206.002C186.14 203.557 182.993 201.92 178.6 201.92H166C165.226 201.92 164.7 201.38 164.7 200.755V190.764C164.7 190.139 165.226 189.598 166 189.598H178.6Z" stroke="#2C5364"/>
</svg>
